<svg width="0" height="0" class="hidden">
  <symbol fill="none" xmlns="http://www.w3.org/2000/svg" viewBox="0 0 25 24" id="close_fullscreen">
    <path d="M20.3263 5.42885L16.4966 9.25858L17.8232 10.5852C18.3489 11.1109 17.9734 12.012 17.2308 12.012H13.4094C12.9505 12.012 12.5751 11.6365 12.5751 11.1776V7.33955C12.5751 6.59696 13.4762 6.2215 14.0018 6.74715L15.3285 8.07379L19.1582 4.24405C19.4836 3.91865 20.0092 3.91865 20.3346 4.24405C20.6517 4.5778 20.6517 5.10345 20.3263 5.42885ZM6.00026 19.7549L9.83 15.9252L11.1566 17.2518C11.6823 17.7775 12.5834 17.402 12.5834 16.6594V12.838C12.5834 12.3791 12.2079 12.0036 11.749 12.0036H7.91096C7.16837 12.0036 6.79291 12.9048 7.31856 13.4304L8.6452 14.757L4.81546 18.5868C4.49006 18.9122 4.49006 19.4378 4.81546 19.7632C5.14921 20.0803 5.67486 20.0803 6.00026 19.7549Z" fill="white"></path>
  </symbol>
  <symbol xmlns="http://www.w3.org/2000/svg" fill="#FFFFFF" viewBox="0 0 24 24" id="add_comment">
    <path d="M0 0h24v24H0V0z" fill="none"></path>
    <path d="M22 4c0-1.1-.9-2-2-2H4c-1.1 0-2 .9-2 2v12c0 1.1.9 2 2 2h14l4 4V4zm-6 7h-3v3c0 .55-.45 1-1 1s-1-.45-1-1v-3H8c-.55 0-1-.45-1-1s.45-1 1-1h3V6c0-.55.45-1 1-1s1 .45 1 1v3h3c.55 0 1 .45 1 1s-.45 1-1 1z"></path>
  </symbol>
  <symbol fill="none" xmlns="http://www.w3.org/2000/svg" viewBox="0 0 25 24" id="fullscreen">
    <path d="M5.71427 14.2857C5.0857 14.2857 4.57141 14.8 4.57141 15.4286V18.8571C4.57141 19.4857 5.0857 20 5.71427 20H9.14284C9.77141 20 10.2857 19.4857 10.2857 18.8571C10.2857 18.2286 9.77141 17.7143 9.14284 17.7143H6.85713V15.4286C6.85713 14.8 6.34284 14.2857 5.71427 14.2857ZM5.71427 9.71429C6.34284 9.71429 6.85713 9.2 6.85713 8.57143V6.28571H9.14284C9.77141 6.28571 10.2857 5.77143 10.2857 5.14286C10.2857 4.51429 9.77141 4 9.14284 4H5.71427C5.0857 4 4.57141 4.51429 4.57141 5.14286V8.57143C4.57141 9.2 5.0857 9.71429 5.71427 9.71429ZM18.2857 17.7143H16C15.3714 17.7143 14.8571 18.2286 14.8571 18.8571C14.8571 19.4857 15.3714 20 16 20H19.4286C20.0571 20 20.5714 19.4857 20.5714 18.8571V15.4286C20.5714 14.8 20.0571 14.2857 19.4286 14.2857C18.8 14.2857 18.2857 14.8 18.2857 15.4286V17.7143ZM14.8571 5.14286C14.8571 5.77143 15.3714 6.28571 16 6.28571H18.2857V8.57143C18.2857 9.2 18.8 9.71429 19.4286 9.71429C20.0571 9.71429 20.5714 9.2 20.5714 8.57143V5.14286C20.5714 4.51429 20.0571 4 19.4286 4H16C15.3714 4 14.8571 4.51429 14.8571 5.14286Z" fill="white"></path>
  </symbol>
  <symbol fill="none" xmlns="http://www.w3.org/2000/svg" viewBox="0 0 17 16" id="likes">
    <path d="M12.325 0C10.846 0 9.4265 0.682105 8.5 1.76C7.5735 0.682105 6.154 0 4.675 0C2.057 0 0 2.03789 0 4.63158C0 7.81474 2.89 10.4084 7.2675 14.3495L8.5 15.4526L9.7325 14.3411C14.11 10.4084 17 7.81474 17 4.63158C17 2.03789 14.943 0 12.325 0Z" fill="#AFAFAF"></path>
  </symbol>
  <symbol fill="none" xmlns="http://www.w3.org/2000/svg" viewBox="0 0 25 24" id="pause">
    <path d="M8.71427 20C9.89284 20 10.8571 19.0357 10.8571 17.8571V7.14286C10.8571 5.96429 9.89284 5 8.71427 5C7.5357 5 6.57141 5.96429 6.57141 7.14286V17.8571C6.57141 19.0357 7.5357 20 8.71427 20ZM15.1428 7.14286V17.8571C15.1428 19.0357 16.1071 20 17.2857 20C18.4643 20 19.4286 19.0357 19.4286 17.8571V7.14286C19.4286 5.96429 18.4643 5 17.2857 5C16.1071 5 15.1428 5.96429 15.1428 7.14286Z" fill="white"></path>
  </symbol>
  <symbol xmlns="http://www.w3.org/2000/svg" fill="#FFFFFF" viewBox="0 0 24 24" id="publish">
    <path d="M0 0h24v24H0V0z" fill="none"></path>
    <path d="M5 5c0 .55.45 1 1 1h12c.55 0 1-.45 1-1s-.45-1-1-1H6c-.55 0-1 .45-1 1zm2.41 9H9v5c0 .55.45 1 1 1h4c.55 0 1-.45 1-1v-5h1.59c.89 0 1.34-1.08.71-1.71L12.71 7.7c-.39-.39-1.02-.39-1.41 0l-4.59 4.59c-.63.63-.19 1.71.7 1.71z"></path>
  </symbol>
  <symbol fill="none" xmlns="http://www.w3.org/2000/svg" viewBox="0 0 13 16" id="play">
    <g clip-path="url(#clip0)">
      <path d="M0.571411 2.07999V13.92C0.571411 14.8229 1.5657 15.3714 2.33141 14.88L11.6343 8.95999C12.3428 8.51428 12.3428 7.48571 11.6343 7.02856L2.33141 1.11999C1.5657 0.628565 0.571411 1.17714 0.571411 2.07999Z" fill="white"></path>
    </g>
    <defs>
      <clipPath id="clip0">
        <rect width="12.5714" height="16" fill="white"></rect>
      </clipPath>
    </defs>
  </symbol>
  <symbol fill="none" xmlns="http://www.w3.org/2000/svg" viewBox="0 0 16 16" id="scrub">
    <circle cx="8" cy="8" r="8" fill="white"></circle>
  </symbol>
  <symbol fill="none" xmlns="http://www.w3.org/2000/svg" viewBox="0 0 18 18" id="search">
    <path d="M12.8645 11.3208H12.0515L11.7633 11.0429C12.7719 9.86964 13.3791 8.34648 13.3791 6.68954C13.3791 2.99485 10.3842 0 6.68954 0C2.99485 0 0 2.99485 0 6.68954C0 10.3842 2.99485 13.3791 6.68954 13.3791C8.34648 13.3791 9.86964 12.7719 11.0429 11.7633L11.3208 12.0515V12.8645L16.4666 18L18 16.4666L12.8645 11.3208ZM6.68954 11.3208C4.12693 11.3208 2.05832 9.25214 2.05832 6.68954C2.05832 4.12693 4.12693 2.05832 6.68954 2.05832C9.25214 2.05832 11.3208 4.12693 11.3208 6.68954C11.3208 9.25214 9.25214 11.3208 6.68954 11.3208Z" fill="currentColor"></path>
  </symbol>
  <symbol xmlns="http://www.w3.org/2000/svg" enable-background="new 0 0 24 24" fill="#FFFFFF" viewBox="0 0 24 24" id="upload">
    <g>
      <rect fill="none" height="24" width="24"></rect>
    </g>
    <g>
      <path d="M7.4,10h1.59v5c0,0.55,0.45,1,1,1h4c0.55,0,1-0.45,1-1v-5h1.59c0.89,0,1.34-1.08,0.71-1.71L12.7,3.7 c-0.39-0.39-1.02-0.39-1.41,0L6.7,8.29C6.07,8.92,6.51,10,7.4,10z M5,19c0,0.55,0.45,1,1,1h12c0.55,0,1-0.45,1-1s-0.45-1-1-1H6 C5.45,18,5,18.45,5,19z"></path>
    </g>
  </symbol>
  <symbol fill="none" xmlns="http://www.w3.org/2000/svg" viewBox="0 0 22 15" id="views">
    <path d="M11 0C6 0 1.73 3.11 0 7.5C1.73 11.89 6 15 11 15C16 15 20.27 11.89 22 7.5C20.27 3.11 16 0 11 0ZM11 12.5C8.24 12.5 6 10.26 6 7.5C6 4.74 8.24 2.5 11 2.5C13.76 2.5 16 4.74 16 7.5C16 10.26 13.76 12.5 11 12.5ZM11 4.5C9.34 4.5 8 5.84 8 7.5C8 9.16 9.34 10.5 11 10.5C12.66 10.5 14 9.16 14 7.5C14 5.84 12.66 4.5 11 4.5Z" fill="#AFAFAF"></path>
  </symbol>
  <symbol fill="none" xmlns="http://www.w3.org/2000/svg" viewBox="0 0 25 24" id="volume_off">
    <path d="M5.13141 4.26C4.78474 4.60667 4.78474 5.16667 5.13141 5.51333L8.38474 8.76667L8.12697 9.03333H5.4603C4.97141 9.03333 4.57141 9.43333 4.57141 9.92222V13.4778C4.57141 13.9667 4.97141 14.3667 5.4603 14.3667H8.12697L11.0514 17.2911C11.6114 17.8511 12.5714 17.4511 12.5714 16.66V12.9533L16.287 16.6689C15.8514 16.9978 15.3803 17.2733 14.8647 17.4778C14.5447 17.6111 14.3492 17.9489 14.3492 18.2956C14.3492 18.9356 14.9981 19.3444 15.5847 19.1044C16.2959 18.8111 16.9625 18.42 17.5581 17.94L18.7492 19.1311C19.0959 19.4778 19.6559 19.4778 20.0025 19.1311C20.3492 18.7844 20.3492 18.2244 20.0025 17.8778L6.39363 4.26C6.04697 3.91333 5.48697 3.91333 5.13141 4.26ZM18.7936 11.7C18.7936 12.4289 18.6603 13.1311 18.4292 13.78L19.7892 15.14C20.287 14.1 20.5714 12.9356 20.5714 11.7C20.5714 8.29556 18.4381 5.38 15.4336 4.23333C14.9092 4.02889 14.3492 4.43778 14.3492 4.99778V5.16667C14.3492 5.50444 14.5714 5.79778 14.8914 5.92222C17.1759 6.84667 18.7936 9.08667 18.7936 11.7ZM11.0514 6.10889L10.9003 6.26L12.5714 7.93111V6.73111C12.5714 5.94 11.6114 5.54889 11.0514 6.10889ZM16.5714 11.7C16.5714 10.1267 15.6647 8.77556 14.3492 8.11778V9.70889L16.5536 11.9133C16.5625 11.8422 16.5714 11.7711 16.5714 11.7Z" fill="white"></path>
  </symbol>
  <symbol fill="none" xmlns="http://www.w3.org/2000/svg" viewBox="0 0 25 24" id="volume_up">
    <path d="M4.57141 10.6978V14.2254C4.57141 14.7104 4.96826 15.1072 5.45329 15.1072H8.09893L11.0003 18.0086C11.5559 18.5642 12.5083 18.1674 12.5083 17.3825V7.53189C12.5083 6.74702 11.5559 6.35018 11.0003 6.90576L8.09893 9.81596H5.45329C4.96826 9.81596 4.57141 10.2128 4.57141 10.6978ZM16.4768 12.4616C16.4768 10.9007 15.5773 9.56022 14.2721 8.90763V16.0068C15.5773 15.363 16.4768 14.0225 16.4768 12.4616ZM14.2721 5.80341V5.97979C14.2721 6.3149 14.4926 6.60592 14.8012 6.72938C17.0765 7.63772 18.6815 9.86887 18.6815 12.4616C18.6815 15.0543 17.0765 17.2855 14.8012 18.1938C14.4837 18.3173 14.2721 18.6083 14.2721 18.9434V19.1198C14.2721 19.6754 14.8277 20.0634 15.3392 19.8694C18.3287 18.7318 20.4452 15.848 20.4452 12.4616C20.4452 9.07518 18.3287 6.19144 15.3392 5.05381C14.8277 4.85098 14.2721 5.24783 14.2721 5.80341V5.80341Z" fill="white"></path>
  </symbol>
</svg>